HIERARCHY
ROOT Hips
{
 OFFSET 0.000000 0.000000 0.000000
 CHANNELS 6 Xposition Yposition Zposition Yrotation Xrotation Zrotation
 JOINT Chest
 {
  OFFSET 0.000000 9.585900 0.002600
  CHANNELS 3 Yrotation Xrotation Zrotation
  JOINT Chest2
  {
   OFFSET 0.000000 9.601200 -0.005300
   CHANNELS 3 Yrotation Xrotation Zrotation
   JOINT Chest3
   {
    OFFSET 0.000000 9.561800 0.000000
    CHANNELS 3 Yrotation Xrotation Zrotation
    JOINT Chest4
    {
     OFFSET 0.000000 9.552100 0.000000
     CHANNELS 3 Yrotation Xrotation Zrotation
     JOINT Neck
     {
      OFFSET 0.000000 14.453000 0.000000
      CHANNELS 3 Yrotation Xrotation Zrotation
      JOINT Head
      {
       OFFSET 0.000000 8.936500 -0.011300
       CHANNELS 3 Yrotation Xrotation Zrotation
       End Site
       {
        OFFSET 0.000000 17.073600 -0.006000
       }
      }
     }
     JOINT RightCollar
     {
      OFFSET -2.921100 9.558500 0.000000
      CHANNELS 3 Yrotation Xrotation Zrotation
      JOINT RightShoulder
      {
       OFFSET -13.519700 0.000000 0.000000
       CHANNELS 3 Yrotation Xrotation Zrotation
       JOINT RightElbow
       {
        OFFSET 0.000000 -29.696600 0.000000
        CHANNELS 3 Yrotation Xrotation Zrotation
        JOINT RightWrist
        {
         OFFSET 0.000000 -24.004700 0.000000
         CHANNELS 3 Yrotation Xrotation Zrotation
         End Site
         {
          OFFSET 0.000000 -17.728500 0.000000
         }
        }
       }
      }
     }
     JOINT LeftCollar
     {
      OFFSET 2.921100 9.558500 0.000000
      CHANNELS 3 Yrotation Xrotation Zrotation
      JOINT LeftShoulder
      {
       OFFSET 13.519700 0.000000 0.000000
       CHANNELS 3 Yrotation Xrotation Zrotation
       JOINT LeftElbow
       {
        OFFSET 0.000000 -29.696600 0.000000
        CHANNELS 3 Yrotation Xrotation Zrotation
        JOINT LeftWrist
        {
         OFFSET 0.000000 -24.004700 0.000000
         CHANNELS 3 Yrotation Xrotation Zrotation
         End Site
         {
          OFFSET 0.000000 -17.728500 0.000000
         }
        }
       }
      }
     }
    }
   }
  }
 }
 JOINT RightHip
 {
  OFFSET -7.771700 -0.012900 -0.001300
  CHANNELS 3 Yrotation Xrotation Zrotation
  JOINT RightKnee
  {
   OFFSET 0.000000 -40.869800 0.001200
   CHANNELS 3 Yrotation Xrotation Zrotation
   JOINT RightAnkle
   {
    OFFSET 0.000000 -39.717900 0.002100
    CHANNELS 3 Yrotation Xrotation Zrotation
    JOINT RightToe
    {
     OFFSET 0.000000 -4.965400 11.033500
     CHANNELS 3 Yrotation Xrotation Zrotation
     End Site
     {
      OFFSET 0.000000 -1.423100 5.872300
     }
    }
   }
  }
 }
 JOINT LeftHip
 {
  OFFSET 7.771700 -0.012900 -0.001300
  CHANNELS 3 Yrotation Xrotation Zrotation
  JOINT LeftKnee
  {
   OFFSET 0.000000 -40.869800 0.001200
   CHANNELS 3 Yrotation Xrotation Zrotation
   JOINT LeftAnkle
   {
    OFFSET 0.000000 -39.717900 0.002100
    CHANNELS 3 Yrotation Xrotation Zrotation
    JOINT LeftToe
    {
     OFFSET 0.000000 -4.965400 11.033500
     CHANNELS 3 Yrotation Xrotation Zrotation
     End Site
     {
      OFFSET 0.000000 -1.423100 5.872300
     }
    }
   }
  }
 }
}
MOTION
Frames: 9
Frame Time: 0.008333
0.000000 85.388000 0.000000 0.000000 -5.767877 0.000000 0.000000 11.653817 0.000000 0.000000 -5.885947 0.000000 0.000000 -0.000000 0.000000 0.000000 -0.000000 0.000000 0.000000 12.528835 0.000000 0.000000 0.711642 0.000000 0.000000 -0.000000 0.000000 0.000000 0.000000 -90.000000 0.000000 -2.309062 0.000000 0.000000 2.309062 0.000000 0.000000 -0.000000 0.000000 0.000000 -0.000000 90.000000 0.000000 -2.309062 0.000000 0.000000 2.309062 0.000000 0.000000 8.520406 0.000000 0.000000 1.905762 0.000000 -0.000000 -4.658285 0.000000 0.000000 -0.000000 0.000000 0.000000 8.520406 0.000000 0.000000 1.905762 0.000000 -0.000000 -4.658285 0.000000 0.000000 -0.000000 0.000000
-95.545834 51.523164 -34.355092 175.482534 -20.515601 -0.772826 -0.083906 8.021035 0.388516 -0.006081 0.388859 0.053749 -0.012888 0.655721 0.103407 -0.052604 7.580939 1.039611 0.915733 19.973613 -1.001016 1.201737 -4.573624 -1.266989 3.776570 16.704592 13.950530 31.311744 -4.179125 -28.281370 100.950638 -63.717415 -142.605360 0.919705 3.233395 10.207440 -7.105839 15.955818 -14.388001 -32.682945 0.462685 29.092030 -59.895152 -70.799889 105.662541 9.989857 1.920570 7.140294 -13.775585 -61.806314 11.104665 -86.896394 82.362544 -95.294269 -4.786984 -10.520287 8.059260 0.305029 -0.923542 0.127108 12.247156 -60.522394 -8.623211 29.430299 83.945451 36.055629 -2.248121 -10.736505 0.404813 0.254497 0.516696 0.137552
-95.546784 51.524363 -34.357604 175.489590 -20.497032 -0.768095 -0.089838 8.022611 0.370549 -0.006127 0.384698 0.056484 -0.011815 0.663652 0.103373 -0.053696 7.565309 1.044203 0.871459 20.020163 -1.012088 1.159432 -4.543696 -1.253418 3.774428 16.723889 13.946863 31.313339 -4.165966 -28.267787 100.942845 -63.696423 -142.593318 0.919269 3.219300 10.245526 -7.111780 15.993711 -14.422501 -32.694471 0.442634 29.045631 -59.872392 -70.784038 105.627328 9.986713 1.921561 7.131794 -13.822821 -61.828654 11.133566 -86.966449 82.364106 -95.378528 -4.785816 -10.506935 8.049252 0.310614 -0.948337 0.133580 12.285509 -60.538554 -8.655942 29.407231 83.949398 36.031759 -2.256357 -10.732011 0.415413 0.254685 0.514458 0.132912
-95.545832 51.525718 -34.361645 175.490452 -20.481621 -0.770343 -0.088087 8.025282 0.362124 -0.006076 0.385024 0.056163 -0.012159 0.666929 0.101216 -0.052922 7.571017 1.037200 0.828566 20.043386 -1.008064 1.112291 -4.512154 -1.240682 3.774426 16.722714 13.958578 31.320524 -4.171849 -28.264368 100.909275 -63.691833 -142.547509 0.919923 3.205847 10.282547 -7.109485 16.005651 -14.429184 -32.706349 0.427724 28.984914 -59.846401 -70.772179 105.593506 9.989301 1.925631 7.126159 -13.846110 -61.842209 11.155431 -86.997390 82.362779 -95.411248 -4.790607 -10.502272 8.042741 0.318485 -0.962015 0.138888 12.336641 -60.550291 -8.684816 29.364306 83.955122 35.998676 -2.271028 -10.738374 0.428231 0.255831 0.516800 0.132066
-95.544922 51.526454 -34.366054 175.497360 -20.461752 -0.772234 -0.090447 8.020788 0.353947 -0.005986 0.389803 0.052727 -0.015974 0.666357 0.100343 -0.048193 7.588576 1.013334 0.785477 20.052996 -0.988584 1.060011 -4.477594 -1.229549 3.779530 16.696907 13.990690 31.307335 -4.140024 -28.233003 100.865376 -63.672538 -142.482042 0.936033 3.204872 10.406176 -7.106334 16.010096 -14.418369 -32.715432 0.413304 28.922377 -59.824707 -70.765168 105.562856 9.994897 1.935398 7.131724 -13.872413 -61.860096 11.175589 -87.035545 82.358011 -95.451078 -4.796861 -10.500859 8.035430 0.319348 -0.971817 0.144900 12.345912 -60.569033 -8.696643 29.397540 83.956895 36.031246 -2.268660 -10.741498 0.432235 0.250422 0.517820 0.127146
-95.543192 51.526660 -34.371576 175.503299 -20.444029 -0.775751 -0.093428 8.010057 0.352210 -0.004449 0.395139 0.048274 -0.013334 0.669026 0.100111 -0.051341 7.583397 1.003548 0.731267 20.088129 -0.991246 1.003017 -4.438364 -1.220124 3.781085 16.700005 14.004573 31.289007 -4.110359 -28.197193 100.733738 -63.707122 -142.311604 0.925539 3.127921 10.436466 -7.113238 16.038967 -14.433439 -32.722996 0.398799 28.860823 -59.843444 -70.736784 105.577265 10.019322 1.972864 7.143697 -13.906393 -61.874186 11.205292 -87.075772 82.350025 -95.496504 -4.800667 -10.502636 8.029970 0.332720 -0.977568 0.149350 12.370450 -60.585459 -8.715632 29.391569 83.965039 36.031738 -2.268148 -10.749921 0.436853 0.251296 0.521326 0.124824
-95.539966 51.526802 -34.379790 175.490368 -20.440547 -0.777936 -0.078579 8.012820 0.355533 -0.003789 0.398838 0.042433 -0.010092 0.679263 0.090112 -0.052022 7.568657 1.003127 0.673486 20.127472 -0.994394 0.942370 -4.394233 -1.210512 3.783310 16.724292 14.018024 31.288029 -4.123265 -28.190724 100.672044 -63.737237 -142.234695 0.923013 3.109604 10.472981 -7.115458 16.053767 -14.430278 -32.733283 0.390717 28.777960 -59.932424 -70.663399 105.676364 10.078697 2.058065 7.146559 -13.926221 -61.872498 11.248915 -87.107599 82.335884 -95.537925 -4.820594 -10.501279 8.027137 0.343420 -0.982026 0.156542 12.397064 -60.590716 -8.715368 29.535962 83.974092 36.176922 -2.270913 -10.764907 0.450396 0.240106 0.522081 0.116718
-95.536545 51.525822 -34.388137 175.485179 -20.435471 -0.781790 -0.068788 8.027341 0.342003 -0.006835 0.383861 0.056961 -0.008685 0.683144 0.083280 -0.050868 7.563328 0.998385 0.613732 20.171604 -1.001839 0.879417 -4.346871 -1.198464 3.782552 16.745046 14.027037 31.286950 -4.131471 -28.179687 100.618882 -63.771473 -142.172882 0.923171 3.069626 10.481691 -7.118325 16.069593 -14.431108 -32.747151 0.381680 28.700813 -59.714401 -70.734718 105.420804 9.989252 1.953995 7.192408 -13.938452 -61.877697 11.275116 -87.183603 82.326564 -95.616727 -4.823772 -10.490830 8.021644 0.351082 -0.995205 0.163411 12.413267 -60.596922 -8.715193 29.590052 83.986724 36.235211 -2.267906 -10.783465 0.456172 0.236871 0.528420 0.112603
-95.532578 51.523674 -34.396367 175.468106 -20.429039 -0.782981 -0.050787 8.025584 0.343843 -0.007503 0.383791 0.056401 -0.006502 0.687482 0.076540 -0.051137 7.555255 1.005269 0.551085 20.220826 -1.020488 0.815204 -4.299132 -1.185083 3.762912 16.792746 14.011254 31.268834 -4.134281 -28.123598 100.655660 -63.760047 -142.191644 0.927111 3.028233 10.491985 -7.130529 16.104552 -14.462664 -32.766563 0.366292 28.659383 -59.549028 -70.755994 105.233143 9.946925 1.896409 7.231377 -13.940344 -61.884230 11.301198 -87.239977 82.319037 -95.674658 -4.820569 -10.483606 8.015687 0.350668 -1.006124 0.170090 12.442032 -60.607533 -8.716103 29.698578 84.003487 36.349855 -2.270846 -10.802558 0.465962 0.232041 0.530221 0.105960
